<mxfile host="app.diagrams.net" modified="2020-05-22T13:10:21.515Z" agent="5.0 (Windows NT 6.1; Win64; x64) AppleWebKit/537.36 (KHTML, like Gecko) Chrome/78.0.3904.97 Safari/537.36" etag="_UoE_d6uiXwu1KcIOwF6" version="13.1.3" type="github">
  <diagram id="v3OdqPQfAoUavHgLT5DG" name="Page-1">
    <mxGraphModel dx="7240" dy="2073" grid="1" gridSize="10" guides="1" tooltips="1" connect="1" arrows="1" fold="1" page="1" pageScale="1" pageWidth="827" pageHeight="1169" math="0" shadow="0">
      <root>
        <mxCell id="0" />
        <mxCell id="1" parent="0" />
        <mxCell id="HMHt1iqy-GJmb4szX5pf-1" value="" style="shape=cube;whiteSpace=wrap;html=1;boundedLbl=1;backgroundOutline=1;darkOpacity=0.05;darkOpacity2=0.1;flipH=1;size=32;" vertex="1" parent="1">
          <mxGeometry x="-1860" y="246" width="150" height="107.5" as="geometry" />
        </mxCell>
        <mxCell id="OwXjaJo8hkUVQNuan9B8-6" value="" style="shape=cube;whiteSpace=wrap;html=1;boundedLbl=1;backgroundOutline=1;darkOpacity=0.05;darkOpacity2=0.1;flipH=1;size=119;" parent="1" vertex="1">
          <mxGeometry x="-2873" y="129.38" width="120" height="360" as="geometry" />
        </mxCell>
        <mxCell id="OwXjaJo8hkUVQNuan9B8-1" value="" style="shape=cube;whiteSpace=wrap;html=1;boundedLbl=1;backgroundOutline=1;darkOpacity=0.05;darkOpacity2=0.1;flipH=1;size=119;" parent="1" vertex="1">
          <mxGeometry x="-2663" y="129.38" width="130" height="360" as="geometry" />
        </mxCell>
        <mxCell id="OwXjaJo8hkUVQNuan9B8-5" value="" style="shape=cube;whiteSpace=wrap;html=1;boundedLbl=1;backgroundOutline=1;darkOpacity=0.05;darkOpacity2=0.1;flipH=1;size=119;" parent="1" vertex="1">
          <mxGeometry x="-2443" y="129.38" width="130" height="360" as="geometry" />
        </mxCell>
        <mxCell id="OwXjaJo8hkUVQNuan9B8-8" value="" style="shape=cube;whiteSpace=wrap;html=1;boundedLbl=1;backgroundOutline=1;darkOpacity=0.05;darkOpacity2=0.1;flipH=1;size=119;" parent="1" vertex="1">
          <mxGeometry x="-2234" y="129.38" width="130" height="360" as="geometry" />
        </mxCell>
        <mxCell id="OwXjaJo8hkUVQNuan9B8-15" value="" style="shape=cube;whiteSpace=wrap;html=1;boundedLbl=1;backgroundOutline=1;darkOpacity=0.05;darkOpacity2=0.1;flipH=1;size=20;" parent="1" vertex="1">
          <mxGeometry x="-1625" y="280" width="130" height="60" as="geometry" />
        </mxCell>
        <mxCell id="OwXjaJo8hkUVQNuan9B8-16" value="" style="shape=cube;whiteSpace=wrap;html=1;boundedLbl=1;backgroundOutline=1;darkOpacity=0.05;darkOpacity2=0.1;flipH=1;size=20;" parent="1" vertex="1">
          <mxGeometry x="-1515" y="280" width="130" height="60" as="geometry" />
        </mxCell>
        <mxCell id="OwXjaJo8hkUVQNuan9B8-17" value="" style="shape=cube;whiteSpace=wrap;html=1;boundedLbl=1;backgroundOutline=1;darkOpacity=0.05;darkOpacity2=0.1;flipH=1;size=119;" parent="1" vertex="1">
          <mxGeometry x="-2710" y="640" width="120" height="360" as="geometry" />
        </mxCell>
        <mxCell id="OwXjaJo8hkUVQNuan9B8-18" value="" style="shape=cube;whiteSpace=wrap;html=1;boundedLbl=1;backgroundOutline=1;darkOpacity=0.05;darkOpacity2=0.1;flipH=1;size=119;" parent="1" vertex="1">
          <mxGeometry x="-2530" y="640" width="130" height="360" as="geometry" />
        </mxCell>
        <mxCell id="OwXjaJo8hkUVQNuan9B8-19" value="" style="shape=cube;whiteSpace=wrap;html=1;boundedLbl=1;backgroundOutline=1;darkOpacity=0.05;darkOpacity2=0.1;flipH=1;size=119;" parent="1" vertex="1">
          <mxGeometry x="-2340" y="640" width="130" height="360" as="geometry" />
        </mxCell>
        <mxCell id="OwXjaJo8hkUVQNuan9B8-20" value="" style="shape=cube;whiteSpace=wrap;html=1;boundedLbl=1;backgroundOutline=1;darkOpacity=0.05;darkOpacity2=0.1;flipH=1;size=119;" parent="1" vertex="1">
          <mxGeometry x="-2160" y="640" width="130" height="360" as="geometry" />
        </mxCell>
        <mxCell id="OwXjaJo8hkUVQNuan9B8-23" value="" style="shape=cube;whiteSpace=wrap;html=1;boundedLbl=1;backgroundOutline=1;darkOpacity=0.05;darkOpacity2=0.1;flipH=1;size=32;" parent="1" vertex="1">
          <mxGeometry x="-1830" y="753.75" width="110" height="132.5" as="geometry" />
        </mxCell>
        <mxCell id="OwXjaJo8hkUVQNuan9B8-29" value="" style="shape=cube;whiteSpace=wrap;html=1;boundedLbl=1;backgroundOutline=1;darkOpacity=0.05;darkOpacity2=0.1;flipH=1;size=6;" parent="1" vertex="1">
          <mxGeometry x="-1530" y="815" width="130" height="20" as="geometry" />
        </mxCell>
        <mxCell id="OwXjaJo8hkUVQNuan9B8-31" value="" style="rounded=0;whiteSpace=wrap;html=1;" parent="1" vertex="1">
          <mxGeometry x="-1630" y="610" width="320" height="13.76" as="geometry" />
        </mxCell>
        <mxCell id="OwXjaJo8hkUVQNuan9B8-33" value="" style="rounded=0;whiteSpace=wrap;html=1;" parent="1" vertex="1">
          <mxGeometry x="-1565" y="440.0000000000001" width="200" height="13.76" as="geometry" />
        </mxCell>
        <mxCell id="OwXjaJo8hkUVQNuan9B8-34" value="" style="endArrow=none;html=1;exitX=0;exitY=0;exitDx=0;exitDy=0;entryX=0;entryY=1;entryDx=0;entryDy=0;" parent="1" source="OwXjaJo8hkUVQNuan9B8-31" target="OwXjaJo8hkUVQNuan9B8-33" edge="1">
          <mxGeometry width="50" height="50" relative="1" as="geometry">
            <mxPoint x="-1660" y="550" as="sourcePoint" />
            <mxPoint x="-1610" y="500" as="targetPoint" />
          </mxGeometry>
        </mxCell>
        <mxCell id="OwXjaJo8hkUVQNuan9B8-36" value="" style="endArrow=none;html=1;exitX=1;exitY=0;exitDx=0;exitDy=0;entryX=1;entryY=1;entryDx=0;entryDy=0;" parent="1" source="OwXjaJo8hkUVQNuan9B8-31" target="OwXjaJo8hkUVQNuan9B8-33" edge="1">
          <mxGeometry width="50" height="50" relative="1" as="geometry">
            <mxPoint x="-1614.9999999999986" y="565" as="sourcePoint" />
            <mxPoint x="-1555" y="493.76" as="targetPoint" />
          </mxGeometry>
        </mxCell>
        <mxCell id="OwXjaJo8hkUVQNuan9B8-37" value="" style="endArrow=none;html=1;exitX=0;exitY=0;exitDx=124;exitDy=0;entryX=0;entryY=1;entryDx=0;entryDy=0;exitPerimeter=0;" parent="1" source="OwXjaJo8hkUVQNuan9B8-29" target="OwXjaJo8hkUVQNuan9B8-31" edge="1">
          <mxGeometry width="50" height="50" relative="1" as="geometry">
            <mxPoint x="-1614.9999999999955" y="705" as="sourcePoint" />
            <mxPoint x="-1555" y="633.76" as="targetPoint" />
          </mxGeometry>
        </mxCell>
        <mxCell id="OwXjaJo8hkUVQNuan9B8-38" value="" style="endArrow=none;html=1;entryX=1;entryY=0.75;entryDx=0;entryDy=0;exitX=0.01;exitY=0.006;exitDx=0;exitDy=0;exitPerimeter=0;" parent="1" source="OwXjaJo8hkUVQNuan9B8-29" target="OwXjaJo8hkUVQNuan9B8-31" edge="1">
          <mxGeometry width="50" height="50" relative="1" as="geometry">
            <mxPoint x="-1260" y="780" as="sourcePoint" />
            <mxPoint x="-1615" y="718.76" as="targetPoint" />
          </mxGeometry>
        </mxCell>
        <mxCell id="OwXjaJo8hkUVQNuan9B8-42" value="" style="shape=flexArrow;endArrow=classic;html=1;width=16;endSize=7.5566666666666675;endWidth=15.333333333333334;fillColor=#ffffff;" parent="1" edge="1">
          <mxGeometry width="50" height="50" relative="1" as="geometry">
            <mxPoint x="-2420" y="825.47" as="sourcePoint" />
            <mxPoint x="-2360" y="825.47" as="targetPoint" />
          </mxGeometry>
        </mxCell>
        <mxCell id="OwXjaJo8hkUVQNuan9B8-45" value="" style="shape=flexArrow;endArrow=classic;html=1;width=16;endSize=7.5566666666666675;endWidth=15.333333333333334;fillColor=#ffffff;" parent="1" edge="1">
          <mxGeometry width="50" height="50" relative="1" as="geometry">
            <mxPoint x="-2230" y="827.9700000000003" as="sourcePoint" />
            <mxPoint x="-2170" y="827.9700000000003" as="targetPoint" />
          </mxGeometry>
        </mxCell>
        <mxCell id="OwXjaJo8hkUVQNuan9B8-46" value="" style="shape=flexArrow;endArrow=classic;html=1;width=16;endSize=7.5566666666666675;endWidth=15.333333333333334;fillColor=#ffffff;" parent="1" edge="1">
          <mxGeometry width="50" height="50" relative="1" as="geometry">
            <mxPoint x="-2733" y="319.3800000000002" as="sourcePoint" />
            <mxPoint x="-2673" y="319.3800000000002" as="targetPoint" />
          </mxGeometry>
        </mxCell>
        <mxCell id="OwXjaJo8hkUVQNuan9B8-47" value="" style="shape=flexArrow;endArrow=classic;html=1;width=16;endSize=7.5566666666666675;endWidth=15.333333333333334;fillColor=#ffffff;" parent="1" edge="1">
          <mxGeometry width="50" height="50" relative="1" as="geometry">
            <mxPoint x="-2513" y="319.3800000000002" as="sourcePoint" />
            <mxPoint x="-2453" y="319.3800000000002" as="targetPoint" />
          </mxGeometry>
        </mxCell>
        <mxCell id="OwXjaJo8hkUVQNuan9B8-48" value="" style="shape=flexArrow;endArrow=classic;html=1;width=16;endSize=7.5566666666666675;endWidth=15.333333333333334;fillColor=#ffffff;" parent="1" edge="1">
          <mxGeometry width="50" height="50" relative="1" as="geometry">
            <mxPoint x="-2303" y="319.3800000000002" as="sourcePoint" />
            <mxPoint x="-2243" y="319.3800000000002" as="targetPoint" />
          </mxGeometry>
        </mxCell>
        <mxCell id="OwXjaJo8hkUVQNuan9B8-49" value="" style="shape=flexArrow;endArrow=classic;html=1;width=16;endSize=7.5566666666666675;endWidth=15.333333333333334;fillColor=#ffffff;" parent="1" edge="1">
          <mxGeometry width="50" height="50" relative="1" as="geometry">
            <mxPoint x="-2083" y="319.3800000000002" as="sourcePoint" />
            <mxPoint x="-2023" y="319.3800000000002" as="targetPoint" />
          </mxGeometry>
        </mxCell>
        <mxCell id="OwXjaJo8hkUVQNuan9B8-51" value="" style="shape=flexArrow;endArrow=classic;html=1;width=16;endSize=7.5566666666666675;endWidth=15.333333333333334;fillColor=#ffffff;" parent="1" edge="1">
          <mxGeometry width="50" height="50" relative="1" as="geometry">
            <mxPoint x="-1928" y="319.0000000000002" as="sourcePoint" />
            <mxPoint x="-1868" y="319.0000000000002" as="targetPoint" />
          </mxGeometry>
        </mxCell>
        <mxCell id="OwXjaJo8hkUVQNuan9B8-52" value="" style="shape=flexArrow;endArrow=classic;html=1;width=16;endSize=7.5566666666666675;endWidth=15.333333333333334;fillColor=#ffffff;" parent="1" edge="1">
          <mxGeometry width="50" height="50" relative="1" as="geometry">
            <mxPoint x="-1700" y="319.17000000000024" as="sourcePoint" />
            <mxPoint x="-1640" y="319.17000000000024" as="targetPoint" />
          </mxGeometry>
        </mxCell>
        <mxCell id="OwXjaJo8hkUVQNuan9B8-53" value="" style="shape=flexArrow;endArrow=classic;html=1;width=16;endSize=7.5566666666666675;endWidth=15.333333333333334;fillColor=#ffffff;" parent="1" edge="1">
          <mxGeometry width="50" height="50" relative="1" as="geometry">
            <mxPoint x="-2610" y="825.9700000000003" as="sourcePoint" />
            <mxPoint x="-2550" y="825.9700000000003" as="targetPoint" />
          </mxGeometry>
        </mxCell>
        <mxCell id="OwXjaJo8hkUVQNuan9B8-54" value="" style="shape=flexArrow;endArrow=classic;html=1;width=16;endSize=7.5566666666666675;endWidth=15.333333333333334;fillColor=#ffffff;" parent="1" edge="1">
          <mxGeometry width="50" height="50" relative="1" as="geometry">
            <mxPoint x="-2050" y="827.9700000000003" as="sourcePoint" />
            <mxPoint x="-1990" y="827.9700000000003" as="targetPoint" />
          </mxGeometry>
        </mxCell>
        <mxCell id="OwXjaJo8hkUVQNuan9B8-57" value="" style="shape=flexArrow;endArrow=classic;html=1;width=16;endSize=7.5566666666666675;endWidth=15.333333333333334;fillColor=#ffffff;" parent="1" edge="1">
          <mxGeometry width="50" height="50" relative="1" as="geometry">
            <mxPoint x="-1730" y="827.9700000000003" as="sourcePoint" />
            <mxPoint x="-1670" y="827.9700000000003" as="targetPoint" />
          </mxGeometry>
        </mxCell>
        <mxCell id="OwXjaJo8hkUVQNuan9B8-60" value="" style="shape=flexArrow;endArrow=classic;html=1;width=11.2;endSize=7.9319999999999995;endWidth=15.333333333333334;fillColor=#ffffff;" parent="1" edge="1">
          <mxGeometry width="50" height="50" relative="1" as="geometry">
            <mxPoint x="-1593.9999999999995" y="829.79" as="sourcePoint" />
            <mxPoint x="-1543.9999999999995" y="829.79" as="targetPoint" />
          </mxGeometry>
        </mxCell>
        <mxCell id="OwXjaJo8hkUVQNuan9B8-61" value="" style="shape=flexArrow;endArrow=classic;html=1;width=16;endSize=7.5566666666666675;endWidth=15.333333333333334;fillColor=#ffffff;" parent="1" edge="1">
          <mxGeometry width="50" height="50" relative="1" as="geometry">
            <mxPoint x="-1465.1699999999996" y="409.99999999999994" as="sourcePoint" />
            <mxPoint x="-1465.17" y="370" as="targetPoint" />
          </mxGeometry>
        </mxCell>
        <mxCell id="OwXjaJo8hkUVQNuan9B8-62" value="" style="shape=cube;whiteSpace=wrap;html=1;boundedLbl=1;backgroundOutline=1;darkOpacity=0.05;darkOpacity2=0.1;flipH=1;size=20;" parent="1" vertex="1">
          <mxGeometry x="-1320" y="280" width="130" height="60" as="geometry" />
        </mxCell>
        <mxCell id="OwXjaJo8hkUVQNuan9B8-63" value="" style="shape=flexArrow;endArrow=classic;html=1;width=16;endSize=7.5566666666666675;endWidth=15.333333333333334;fillColor=#ffffff;" parent="1" edge="1">
          <mxGeometry width="50" height="50" relative="1" as="geometry">
            <mxPoint x="-1377.9999999999995" y="319.28999999999996" as="sourcePoint" />
            <mxPoint x="-1328" y="319.28999999999996" as="targetPoint" />
          </mxGeometry>
        </mxCell>
        <mxCell id="OwXjaJo8hkUVQNuan9B8-64" value="" style="shape=cube;whiteSpace=wrap;html=1;boundedLbl=1;backgroundOutline=1;darkOpacity=0.05;darkOpacity2=0.1;flipH=1;size=32;" parent="1" vertex="1">
          <mxGeometry x="-1120" y="245" width="130" height="107.5" as="geometry" />
        </mxCell>
        <mxCell id="OwXjaJo8hkUVQNuan9B8-65" value="" style="shape=flexArrow;endArrow=classic;html=1;width=16;endSize=7.5566666666666675;endWidth=15.333333333333334;fillColor=#ffffff;" parent="1" edge="1">
          <mxGeometry width="50" height="50" relative="1" as="geometry">
            <mxPoint x="-1179.9999999999995" y="318.99999999999994" as="sourcePoint" />
            <mxPoint x="-1130" y="318.99999999999994" as="targetPoint" />
          </mxGeometry>
        </mxCell>
        <mxCell id="OwXjaJo8hkUVQNuan9B8-68" value="" style="shape=cube;whiteSpace=wrap;html=1;boundedLbl=1;backgroundOutline=1;darkOpacity=0.05;darkOpacity2=0.1;flipH=1;size=119;" parent="1" vertex="1">
          <mxGeometry x="-769" y="125.63" width="130" height="360" as="geometry" />
        </mxCell>
        <mxCell id="OwXjaJo8hkUVQNuan9B8-69" value="" style="shape=cube;whiteSpace=wrap;html=1;boundedLbl=1;backgroundOutline=1;darkOpacity=0.05;darkOpacity2=0.1;flipH=1;size=119;" parent="1" vertex="1">
          <mxGeometry x="-559" y="125.63" width="130" height="360" as="geometry" />
        </mxCell>
        <mxCell id="OwXjaJo8hkUVQNuan9B8-70" value="" style="shape=cube;whiteSpace=wrap;html=1;boundedLbl=1;backgroundOutline=1;darkOpacity=0.05;darkOpacity2=0.1;flipH=1;size=119;" parent="1" vertex="1">
          <mxGeometry x="-349" y="125.63" width="130" height="360" as="geometry" />
        </mxCell>
        <mxCell id="OwXjaJo8hkUVQNuan9B8-71" value="" style="shape=flexArrow;endArrow=classic;html=1;width=16;endSize=7.5566666666666675;endWidth=15.333333333333334;fillColor=#ffffff;" parent="1" edge="1">
          <mxGeometry width="50" height="50" relative="1" as="geometry">
            <mxPoint x="-629" y="314.92" as="sourcePoint" />
            <mxPoint x="-569" y="314.92" as="targetPoint" />
          </mxGeometry>
        </mxCell>
        <mxCell id="OwXjaJo8hkUVQNuan9B8-72" value="" style="shape=flexArrow;endArrow=classic;html=1;width=16;endSize=7.5566666666666675;endWidth=15.333333333333334;fillColor=#ffffff;" parent="1" edge="1">
          <mxGeometry width="50" height="50" relative="1" as="geometry">
            <mxPoint x="-419" y="314.92" as="sourcePoint" />
            <mxPoint x="-359" y="314.92" as="targetPoint" />
          </mxGeometry>
        </mxCell>
        <mxCell id="OwXjaJo8hkUVQNuan9B8-73" value="" style="shape=cube;whiteSpace=wrap;html=1;boundedLbl=1;backgroundOutline=1;darkOpacity=0.05;darkOpacity2=0.1;flipH=1;size=119;" parent="1" vertex="1">
          <mxGeometry x="-139" y="114.38" width="120" height="360" as="geometry" />
        </mxCell>
        <mxCell id="OwXjaJo8hkUVQNuan9B8-80" value="" style="shape=flexArrow;endArrow=classic;html=1;width=16;endSize=7.5566666666666675;endWidth=15.333333333333334;fillColor=#ffffff;" parent="1" edge="1">
          <mxGeometry width="50" height="50" relative="1" as="geometry">
            <mxPoint x="-974" y="318.29" as="sourcePoint" />
            <mxPoint x="-924" y="318.29" as="targetPoint" />
          </mxGeometry>
        </mxCell>
        <mxCell id="OwXjaJo8hkUVQNuan9B8-81" value="" style="shape=flexArrow;endArrow=classic;html=1;width=16;endSize=7.5566666666666675;endWidth=15.333333333333334;fillColor=#ffffff;" parent="1" edge="1">
          <mxGeometry width="50" height="50" relative="1" as="geometry">
            <mxPoint x="-209" y="314.91999999999996" as="sourcePoint" />
            <mxPoint x="-149" y="314.91999999999996" as="targetPoint" />
          </mxGeometry>
        </mxCell>
        <mxCell id="OwXjaJo8hkUVQNuan9B8-82" value="&lt;font style=&quot;font-size: 22px;&quot;&gt;1&lt;/font&gt;" style="text;html=1;align=center;verticalAlign=middle;resizable=0;points=[];autosize=1;fontSize=22;" parent="1" vertex="1">
          <mxGeometry x="-2883" y="498.38" width="30" height="30" as="geometry" />
        </mxCell>
        <mxCell id="OwXjaJo8hkUVQNuan9B8-83" value="&lt;font style=&quot;font-size: 22px&quot;&gt;64&lt;/font&gt;" style="text;html=1;align=center;verticalAlign=middle;resizable=0;points=[];autosize=1;fontSize=22;" parent="1" vertex="1">
          <mxGeometry x="-2678" y="498.38" width="40" height="30" as="geometry" />
        </mxCell>
        <mxCell id="OwXjaJo8hkUVQNuan9B8-84" value="&lt;font style=&quot;font-size: 22px&quot;&gt;64&lt;/font&gt;" style="text;html=1;align=center;verticalAlign=middle;resizable=0;points=[];autosize=1;fontSize=22;" parent="1" vertex="1">
          <mxGeometry x="-2453" y="498.38" width="40" height="30" as="geometry" />
        </mxCell>
        <mxCell id="OwXjaJo8hkUVQNuan9B8-85" value="&lt;font style=&quot;font-size: 22px&quot;&gt;64&lt;/font&gt;" style="text;html=1;align=center;verticalAlign=middle;resizable=0;points=[];autosize=1;fontSize=22;" parent="1" vertex="1">
          <mxGeometry x="-2253" y="498.38" width="40" height="30" as="geometry" />
        </mxCell>
        <mxCell id="OwXjaJo8hkUVQNuan9B8-88" value="&lt;font style=&quot;font-size: 22px&quot;&gt;1024&lt;/font&gt;" style="text;html=1;align=center;verticalAlign=middle;resizable=0;points=[];autosize=1;fontSize=22;" parent="1" vertex="1">
          <mxGeometry x="-1820" y="363.75" width="70" height="30" as="geometry" />
        </mxCell>
        <mxCell id="OwXjaJo8hkUVQNuan9B8-89" value="&lt;font style=&quot;font-size: 22px&quot;&gt;1024&lt;/font&gt;" style="text;html=1;align=center;verticalAlign=middle;resizable=0;points=[];autosize=1;fontSize=22;" parent="1" vertex="1">
          <mxGeometry x="-1600" y="340" width="70" height="30" as="geometry" />
        </mxCell>
        <mxCell id="OwXjaJo8hkUVQNuan9B8-90" value="1024" style="text;html=1;align=center;verticalAlign=middle;resizable=0;points=[];autosize=1;fontSize=22;" parent="1" vertex="1">
          <mxGeometry x="-1500" y="340" width="70" height="30" as="geometry" />
        </mxCell>
        <mxCell id="OwXjaJo8hkUVQNuan9B8-91" value="&lt;font style=&quot;font-size: 22px&quot;&gt;1024&lt;/font&gt;" style="text;html=1;align=center;verticalAlign=middle;resizable=0;points=[];autosize=1;fontSize=22;" parent="1" vertex="1">
          <mxGeometry x="-1300" y="340" width="70" height="30" as="geometry" />
        </mxCell>
        <mxCell id="OwXjaJo8hkUVQNuan9B8-92" value="&lt;font style=&quot;font-size: 22px&quot;&gt;1024&lt;/font&gt;" style="text;html=1;align=center;verticalAlign=middle;resizable=0;points=[];autosize=1;fontSize=22;" parent="1" vertex="1">
          <mxGeometry x="-1110" y="357.5" width="70" height="30" as="geometry" />
        </mxCell>
        <mxCell id="OwXjaJo8hkUVQNuan9B8-95" value="&lt;font style=&quot;font-size: 22px&quot;&gt;64&lt;/font&gt;" style="text;html=1;align=center;verticalAlign=middle;resizable=0;points=[];autosize=1;fontSize=22;" parent="1" vertex="1">
          <mxGeometry x="-770" y="495.63" width="40" height="30" as="geometry" />
        </mxCell>
        <mxCell id="OwXjaJo8hkUVQNuan9B8-96" value="&lt;font style=&quot;font-size: 22px&quot;&gt;64&lt;/font&gt;" style="text;html=1;align=center;verticalAlign=middle;resizable=0;points=[];autosize=1;fontSize=22;" parent="1" vertex="1">
          <mxGeometry x="-555" y="495.63" width="40" height="30" as="geometry" />
        </mxCell>
        <mxCell id="OwXjaJo8hkUVQNuan9B8-97" value="&lt;font style=&quot;font-size: 22px&quot;&gt;64&lt;/font&gt;" style="text;html=1;align=center;verticalAlign=middle;resizable=0;points=[];autosize=1;fontSize=22;" parent="1" vertex="1">
          <mxGeometry x="-345" y="495.63" width="40" height="30" as="geometry" />
        </mxCell>
        <mxCell id="OwXjaJo8hkUVQNuan9B8-98" value="&lt;font style=&quot;font-size: 22px&quot;&gt;2&lt;/font&gt;" style="text;html=1;align=center;verticalAlign=middle;resizable=0;points=[];autosize=1;fontSize=22;" parent="1" vertex="1">
          <mxGeometry x="-140" y="495.63" width="30" height="30" as="geometry" />
        </mxCell>
        <mxCell id="OwXjaJo8hkUVQNuan9B8-99" value="&lt;font style=&quot;font-size: 22px;&quot;&gt;1&lt;/font&gt;" style="text;html=1;align=center;verticalAlign=middle;resizable=0;points=[];autosize=1;fontSize=22;" parent="1" vertex="1">
          <mxGeometry x="-2730" y="1010" width="30" height="30" as="geometry" />
        </mxCell>
        <mxCell id="OwXjaJo8hkUVQNuan9B8-100" value="&lt;font style=&quot;font-size: 22px&quot;&gt;64&lt;/font&gt;" style="text;html=1;align=center;verticalAlign=middle;resizable=0;points=[];autosize=1;fontSize=22;" parent="1" vertex="1">
          <mxGeometry x="-2540" y="1010" width="40" height="30" as="geometry" />
        </mxCell>
        <mxCell id="OwXjaJo8hkUVQNuan9B8-101" value="&lt;font style=&quot;font-size: 22px&quot;&gt;64&lt;/font&gt;" style="text;html=1;align=center;verticalAlign=middle;resizable=0;points=[];autosize=1;fontSize=22;" parent="1" vertex="1">
          <mxGeometry x="-2350" y="1010" width="40" height="30" as="geometry" />
        </mxCell>
        <mxCell id="OwXjaJo8hkUVQNuan9B8-102" value="&lt;font style=&quot;font-size: 22px&quot;&gt;64&lt;/font&gt;" style="text;html=1;align=center;verticalAlign=middle;resizable=0;points=[];autosize=1;fontSize=22;" parent="1" vertex="1">
          <mxGeometry x="-2170" y="1010" width="40" height="30" as="geometry" />
        </mxCell>
        <mxCell id="OwXjaJo8hkUVQNuan9B8-105" value="&lt;font style=&quot;font-size: 22px&quot;&gt;512&lt;/font&gt;" style="text;html=1;align=center;verticalAlign=middle;resizable=0;points=[];autosize=1;fontSize=22;" parent="1" vertex="1">
          <mxGeometry x="-1810" y="890" width="50" height="30" as="geometry" />
        </mxCell>
        <mxCell id="OwXjaJo8hkUVQNuan9B8-109" value="&lt;font style=&quot;font-size: 22px&quot;&gt;512&lt;/font&gt;" style="text;html=1;align=center;verticalAlign=middle;resizable=0;points=[];autosize=1;fontSize=22;" parent="1" vertex="1">
          <mxGeometry x="-1495" y="845" width="50" height="30" as="geometry" />
        </mxCell>
        <mxCell id="OwXjaJo8hkUVQNuan9B8-110" value="&lt;font style=&quot;font-size: 22px&quot;&gt;2048&lt;/font&gt;" style="text;html=1;align=center;verticalAlign=middle;resizable=0;points=[];autosize=1;fontSize=22;" parent="1" vertex="1">
          <mxGeometry x="-1490" y="630" width="60" height="30" as="geometry" />
        </mxCell>
        <mxCell id="OwXjaJo8hkUVQNuan9B8-111" value="&lt;font style=&quot;font-size: 22px&quot;&gt;1024&lt;/font&gt;" style="text;html=1;align=center;verticalAlign=middle;resizable=0;points=[];autosize=1;fontSize=22;" parent="1" vertex="1">
          <mxGeometry x="-1495" y="454.63" width="60" height="30" as="geometry" />
        </mxCell>
        <mxCell id="OwXjaJo8hkUVQNuan9B8-113" value="&lt;font style=&quot;font-size: 22px&quot;&gt;256&lt;/font&gt;" style="text;html=1;align=center;verticalAlign=middle;resizable=0;points=[];autosize=1;fontSize=22;" parent="1" vertex="1">
          <mxGeometry x="-2660" y="715" width="50" height="30" as="geometry" />
        </mxCell>
        <mxCell id="OwXjaJo8hkUVQNuan9B8-114" value="&lt;font style=&quot;font-size: 22px&quot;&gt;256&lt;/font&gt;" style="text;html=1;align=center;verticalAlign=middle;resizable=0;points=[];autosize=1;fontSize=22;" parent="1" vertex="1">
          <mxGeometry x="-2590" y="640" width="50" height="30" as="geometry" />
        </mxCell>
        <mxCell id="OwXjaJo8hkUVQNuan9B8-115" value="&lt;font style=&quot;font-size: 22px&quot;&gt;256&lt;/font&gt;" style="text;html=1;align=center;verticalAlign=middle;resizable=0;points=[];autosize=1;fontSize=22;" parent="1" vertex="1">
          <mxGeometry x="-2470" y="715" width="50" height="30" as="geometry" />
        </mxCell>
        <mxCell id="OwXjaJo8hkUVQNuan9B8-116" value="&lt;font style=&quot;font-size: 22px&quot;&gt;256&lt;/font&gt;" style="text;html=1;align=center;verticalAlign=middle;resizable=0;points=[];autosize=1;fontSize=22;" parent="1" vertex="1">
          <mxGeometry x="-2400" y="640" width="50" height="30" as="geometry" />
        </mxCell>
        <mxCell id="OwXjaJo8hkUVQNuan9B8-117" value="&lt;font style=&quot;font-size: 22px&quot;&gt;256&lt;/font&gt;" style="text;html=1;align=center;verticalAlign=middle;resizable=0;points=[];autosize=1;fontSize=22;" parent="1" vertex="1">
          <mxGeometry x="-2270" y="705" width="50" height="30" as="geometry" />
        </mxCell>
        <mxCell id="OwXjaJo8hkUVQNuan9B8-118" value="&lt;font style=&quot;font-size: 22px&quot;&gt;256&lt;/font&gt;" style="text;html=1;align=center;verticalAlign=middle;resizable=0;points=[];autosize=1;fontSize=22;" parent="1" vertex="1">
          <mxGeometry x="-2210" y="641.24" width="50" height="30" as="geometry" />
        </mxCell>
        <mxCell id="OwXjaJo8hkUVQNuan9B8-119" value="&lt;font style=&quot;font-size: 22px&quot;&gt;256&lt;/font&gt;" style="text;html=1;align=center;verticalAlign=middle;resizable=0;points=[];autosize=1;fontSize=22;" parent="1" vertex="1">
          <mxGeometry x="-2030" y="640" width="50" height="30" as="geometry" />
        </mxCell>
        <mxCell id="OwXjaJo8hkUVQNuan9B8-120" value="&lt;font style=&quot;font-size: 22px&quot;&gt;256&lt;/font&gt;" style="text;html=1;align=center;verticalAlign=middle;resizable=0;points=[];autosize=1;fontSize=22;" parent="1" vertex="1">
          <mxGeometry x="-2090" y="705.79" width="50" height="30" as="geometry" />
        </mxCell>
        <mxCell id="OwXjaJo8hkUVQNuan9B8-124" value="&lt;font style=&quot;font-size: 22px&quot;&gt;64&lt;/font&gt;" style="text;html=1;align=center;verticalAlign=middle;resizable=0;points=[];autosize=1;fontSize=22;" parent="1" vertex="1">
          <mxGeometry x="-1900" y="730" width="40" height="30" as="geometry" />
        </mxCell>
        <mxCell id="OwXjaJo8hkUVQNuan9B8-125" value="&lt;font style=&quot;font-size: 22px&quot;&gt;32&lt;/font&gt;" style="text;html=1;align=center;verticalAlign=middle;resizable=0;points=[];autosize=1;fontSize=22;" parent="1" vertex="1">
          <mxGeometry x="-1756" y="785.63" width="40" height="30" as="geometry" />
        </mxCell>
        <mxCell id="OwXjaJo8hkUVQNuan9B8-126" value="&lt;font style=&quot;font-size: 22px&quot;&gt;32&lt;/font&gt;" style="text;html=1;align=center;verticalAlign=middle;resizable=0;points=[];autosize=1;fontSize=22;" parent="1" vertex="1">
          <mxGeometry x="-1720" y="765.79" width="40" height="30" as="geometry" />
        </mxCell>
        <mxCell id="OwXjaJo8hkUVQNuan9B8-133" value="2" style="text;html=1;align=center;verticalAlign=middle;resizable=0;points=[];autosize=1;fontSize=22;" parent="1" vertex="1">
          <mxGeometry x="-1400" y="810" width="30" height="30" as="geometry" />
        </mxCell>
        <mxCell id="OwXjaJo8hkUVQNuan9B8-134" value="2" style="text;html=1;align=center;verticalAlign=middle;resizable=0;points=[];autosize=1;fontSize=22;" parent="1" vertex="1">
          <mxGeometry x="-1430" y="785" width="30" height="30" as="geometry" />
        </mxCell>
        <mxCell id="OwXjaJo8hkUVQNuan9B8-135" value="&lt;font style=&quot;font-size: 22px&quot;&gt;256&lt;/font&gt;" style="text;html=1;align=center;verticalAlign=middle;resizable=0;points=[];autosize=1;fontSize=22;" parent="1" vertex="1">
          <mxGeometry x="-2823" y="199.38" width="50" height="30" as="geometry" />
        </mxCell>
        <mxCell id="OwXjaJo8hkUVQNuan9B8-137" value="&lt;font style=&quot;font-size: 22px&quot;&gt;256&lt;/font&gt;" style="text;html=1;align=center;verticalAlign=middle;resizable=0;points=[];autosize=1;fontSize=22;" parent="1" vertex="1">
          <mxGeometry x="-2753" y="129.38" width="50" height="30" as="geometry" />
        </mxCell>
        <mxCell id="OwXjaJo8hkUVQNuan9B8-138" value="&lt;font style=&quot;font-size: 22px&quot;&gt;256&lt;/font&gt;" style="text;html=1;align=center;verticalAlign=middle;resizable=0;points=[];autosize=1;fontSize=22;" parent="1" vertex="1">
          <mxGeometry x="-2533" y="129.38" width="50" height="30" as="geometry" />
        </mxCell>
        <mxCell id="OwXjaJo8hkUVQNuan9B8-139" value="&lt;font style=&quot;font-size: 22px&quot;&gt;256&lt;/font&gt;" style="text;html=1;align=center;verticalAlign=middle;resizable=0;points=[];autosize=1;fontSize=22;" parent="1" vertex="1">
          <mxGeometry x="-2313" y="129.38" width="50" height="30" as="geometry" />
        </mxCell>
        <mxCell id="OwXjaJo8hkUVQNuan9B8-140" value="&lt;font style=&quot;font-size: 22px&quot;&gt;256&lt;/font&gt;" style="text;html=1;align=center;verticalAlign=middle;resizable=0;points=[];autosize=1;fontSize=22;" parent="1" vertex="1">
          <mxGeometry x="-2383" y="199.38" width="50" height="30" as="geometry" />
        </mxCell>
        <mxCell id="OwXjaJo8hkUVQNuan9B8-141" value="&lt;font style=&quot;font-size: 22px&quot;&gt;256&lt;/font&gt;" style="text;html=1;align=center;verticalAlign=middle;resizable=0;points=[];autosize=1;fontSize=22;" parent="1" vertex="1">
          <mxGeometry x="-2603" y="199.38" width="50" height="30" as="geometry" />
        </mxCell>
        <mxCell id="OwXjaJo8hkUVQNuan9B8-142" value="&lt;font style=&quot;font-size: 22px&quot;&gt;256&lt;/font&gt;" style="text;html=1;align=center;verticalAlign=middle;resizable=0;points=[];autosize=1;fontSize=22;" parent="1" vertex="1">
          <mxGeometry x="-2104" y="129.38" width="50" height="30" as="geometry" />
        </mxCell>
        <mxCell id="OwXjaJo8hkUVQNuan9B8-143" value="&lt;font style=&quot;font-size: 22px&quot;&gt;256&lt;/font&gt;" style="text;html=1;align=center;verticalAlign=middle;resizable=0;points=[];autosize=1;fontSize=22;" parent="1" vertex="1">
          <mxGeometry x="-2173" y="204.38" width="50" height="30" as="geometry" />
        </mxCell>
        <mxCell id="OwXjaJo8hkUVQNuan9B8-146" value="&lt;font style=&quot;font-size: 22px&quot;&gt;64&lt;/font&gt;" style="text;html=1;align=center;verticalAlign=middle;resizable=0;points=[];autosize=1;fontSize=22;" parent="1" vertex="1">
          <mxGeometry x="-1915" y="210" width="40" height="30" as="geometry" />
        </mxCell>
        <mxCell id="OwXjaJo8hkUVQNuan9B8-148" value="&lt;font style=&quot;font-size: 22px&quot;&gt;16&lt;/font&gt;" style="text;html=1;align=center;verticalAlign=middle;resizable=0;points=[];autosize=1;fontSize=22;" parent="1" vertex="1">
          <mxGeometry x="-1712" y="245" width="40" height="30" as="geometry" />
        </mxCell>
        <mxCell id="OwXjaJo8hkUVQNuan9B8-149" value="&lt;font style=&quot;font-size: 22px&quot;&gt;16&lt;/font&gt;" style="text;html=1;align=center;verticalAlign=middle;resizable=0;points=[];autosize=1;fontSize=22;" parent="1" vertex="1">
          <mxGeometry x="-1748" y="271.75" width="40" height="30" as="geometry" />
        </mxCell>
        <mxCell id="OwXjaJo8hkUVQNuan9B8-150" value="&lt;font style=&quot;font-size: 22px&quot;&gt;8&lt;/font&gt;" style="text;html=1;align=center;verticalAlign=middle;resizable=0;points=[];autosize=1;fontSize=22;" parent="1" vertex="1">
          <mxGeometry x="-1380" y="280" width="30" height="30" as="geometry" />
        </mxCell>
        <mxCell id="OwXjaJo8hkUVQNuan9B8-151" value="&lt;font style=&quot;font-size: 22px&quot;&gt;8&lt;/font&gt;" style="text;html=1;align=center;verticalAlign=middle;resizable=0;points=[];autosize=1;fontSize=22;" parent="1" vertex="1">
          <mxGeometry x="-1420" y="250" width="30" height="30" as="geometry" />
        </mxCell>
        <mxCell id="OwXjaJo8hkUVQNuan9B8-152" value="&lt;font style=&quot;font-size: 22px&quot;&gt;8&lt;/font&gt;" style="text;html=1;align=center;verticalAlign=middle;resizable=0;points=[];autosize=1;fontSize=22;" parent="1" vertex="1">
          <mxGeometry x="-1225" y="250" width="30" height="30" as="geometry" />
        </mxCell>
        <mxCell id="OwXjaJo8hkUVQNuan9B8-153" value="&lt;font style=&quot;font-size: 22px&quot;&gt;8&lt;/font&gt;" style="text;html=1;align=center;verticalAlign=middle;resizable=0;points=[];autosize=1;fontSize=22;" parent="1" vertex="1">
          <mxGeometry x="-1185" y="280" width="30" height="30" as="geometry" />
        </mxCell>
        <mxCell id="OwXjaJo8hkUVQNuan9B8-154" value="&lt;font style=&quot;font-size: 22px&quot;&gt;16&lt;/font&gt;" style="text;html=1;align=center;verticalAlign=middle;resizable=0;points=[];autosize=1;fontSize=22;" parent="1" vertex="1">
          <mxGeometry x="-1026" y="270" width="40" height="30" as="geometry" />
        </mxCell>
        <mxCell id="OwXjaJo8hkUVQNuan9B8-155" value="&lt;font style=&quot;font-size: 22px&quot;&gt;16&lt;/font&gt;" style="text;html=1;align=center;verticalAlign=middle;resizable=0;points=[];autosize=1;fontSize=22;" parent="1" vertex="1">
          <mxGeometry x="-995" y="245" width="40" height="30" as="geometry" />
        </mxCell>
        <mxCell id="OwXjaJo8hkUVQNuan9B8-160" value="&lt;font style=&quot;font-size: 22px&quot;&gt;256&lt;/font&gt;" style="text;html=1;align=center;verticalAlign=middle;resizable=0;points=[];autosize=1;fontSize=22;" parent="1" vertex="1">
          <mxGeometry x="-639" y="125.63" width="50" height="30" as="geometry" />
        </mxCell>
        <mxCell id="OwXjaJo8hkUVQNuan9B8-161" value="&lt;font style=&quot;font-size: 22px&quot;&gt;256&lt;/font&gt;" style="text;html=1;align=center;verticalAlign=middle;resizable=0;points=[];autosize=1;fontSize=22;" parent="1" vertex="1">
          <mxGeometry x="-709" y="195.63" width="50" height="30" as="geometry" />
        </mxCell>
        <mxCell id="OwXjaJo8hkUVQNuan9B8-162" value="&lt;font style=&quot;font-size: 22px&quot;&gt;256&lt;/font&gt;" style="text;html=1;align=center;verticalAlign=middle;resizable=0;points=[];autosize=1;fontSize=22;" parent="1" vertex="1">
          <mxGeometry x="-429" y="125.63" width="50" height="30" as="geometry" />
        </mxCell>
        <mxCell id="OwXjaJo8hkUVQNuan9B8-163" value="&lt;font style=&quot;font-size: 22px&quot;&gt;256&lt;/font&gt;" style="text;html=1;align=center;verticalAlign=middle;resizable=0;points=[];autosize=1;fontSize=22;" parent="1" vertex="1">
          <mxGeometry x="-499" y="195.63" width="50" height="30" as="geometry" />
        </mxCell>
        <mxCell id="OwXjaJo8hkUVQNuan9B8-164" value="&lt;font style=&quot;font-size: 22px&quot;&gt;256&lt;/font&gt;" style="text;html=1;align=center;verticalAlign=middle;resizable=0;points=[];autosize=1;fontSize=22;" parent="1" vertex="1">
          <mxGeometry x="-219" y="125.63" width="50" height="30" as="geometry" />
        </mxCell>
        <mxCell id="OwXjaJo8hkUVQNuan9B8-165" value="&lt;font style=&quot;font-size: 22px&quot;&gt;256&lt;/font&gt;" style="text;html=1;align=center;verticalAlign=middle;resizable=0;points=[];autosize=1;fontSize=22;" parent="1" vertex="1">
          <mxGeometry x="-279" y="195.63" width="50" height="30" as="geometry" />
        </mxCell>
        <mxCell id="OwXjaJo8hkUVQNuan9B8-166" value="&lt;font style=&quot;font-size: 22px&quot;&gt;256&lt;/font&gt;" style="text;html=1;align=center;verticalAlign=middle;resizable=0;points=[];autosize=1;fontSize=22;" parent="1" vertex="1">
          <mxGeometry x="-19" y="114.38" width="50" height="30" as="geometry" />
        </mxCell>
        <mxCell id="OwXjaJo8hkUVQNuan9B8-167" value="&lt;font style=&quot;font-size: 22px&quot;&gt;256&lt;/font&gt;" style="text;html=1;align=center;verticalAlign=middle;resizable=0;points=[];autosize=1;fontSize=22;" parent="1" vertex="1">
          <mxGeometry x="-89" y="189.38" width="50" height="30" as="geometry" />
        </mxCell>
        <mxCell id="HMHt1iqy-GJmb4szX5pf-2" value="&lt;font style=&quot;font-size: 72px&quot;&gt;&lt;b&gt;...&lt;/b&gt;&lt;/font&gt;" style="text;html=1;align=center;verticalAlign=middle;resizable=0;points=[];autosize=1;" vertex="1" parent="1">
          <mxGeometry x="-2010" y="289.38" width="80" height="40" as="geometry" />
        </mxCell>
        <mxCell id="HMHt1iqy-GJmb4szX5pf-3" value="&lt;font style=&quot;font-size: 48px&quot;&gt;down-sample&lt;/font&gt;" style="text;html=1;align=center;verticalAlign=middle;resizable=0;points=[];autosize=1;" vertex="1" parent="1">
          <mxGeometry x="-2110" y="410" width="300" height="30" as="geometry" />
        </mxCell>
        <mxCell id="HMHt1iqy-GJmb4szX5pf-4" value="" style="shape=flexArrow;endArrow=classic;html=1;width=16;endSize=7.5566666666666675;endWidth=15.333333333333334;fillColor=#ffffff;" edge="1" parent="1">
          <mxGeometry width="50" height="50" relative="1" as="geometry">
            <mxPoint x="-840" y="321.28999999999996" as="sourcePoint" />
            <mxPoint x="-790" y="321.28999999999996" as="targetPoint" />
            <Array as="points">
              <mxPoint x="-815" y="321" />
            </Array>
          </mxGeometry>
        </mxCell>
        <mxCell id="HMHt1iqy-GJmb4szX5pf-5" value="&lt;font style=&quot;font-size: 72px&quot;&gt;&lt;b&gt;...&lt;/b&gt;&lt;/font&gt;" style="text;html=1;align=center;verticalAlign=middle;resizable=0;points=[];autosize=1;" vertex="1" parent="1">
          <mxGeometry x="-920" y="290" width="80" height="40" as="geometry" />
        </mxCell>
        <mxCell id="HMHt1iqy-GJmb4szX5pf-6" value="&lt;font style=&quot;font-size: 48px&quot;&gt;up-sample&lt;/font&gt;" style="text;html=1;align=center;verticalAlign=middle;resizable=0;points=[];autosize=1;" vertex="1" parent="1">
          <mxGeometry x="-1010" y="410" width="240" height="30" as="geometry" />
        </mxCell>
        <mxCell id="HMHt1iqy-GJmb4szX5pf-7" value="&lt;font style=&quot;font-size: 72px&quot;&gt;&lt;b&gt;...&lt;/b&gt;&lt;/font&gt;" style="text;html=1;align=center;verticalAlign=middle;resizable=0;points=[];autosize=1;" vertex="1" parent="1">
          <mxGeometry x="-1993" y="790" width="80" height="40" as="geometry" />
        </mxCell>
        <mxCell id="HMHt1iqy-GJmb4szX5pf-8" value="" style="shape=flexArrow;endArrow=classic;html=1;width=16;endSize=7.5566666666666675;endWidth=15.333333333333334;fillColor=#ffffff;" edge="1" parent="1">
          <mxGeometry width="50" height="50" relative="1" as="geometry">
            <mxPoint x="-1906.0000000000005" y="829.3100000000003" as="sourcePoint" />
            <mxPoint x="-1846.0000000000005" y="829.3100000000003" as="targetPoint" />
          </mxGeometry>
        </mxCell>
        <mxCell id="HMHt1iqy-GJmb4szX5pf-9" value="&lt;font style=&quot;font-size: 48px&quot;&gt;down-sample&lt;/font&gt;" style="text;html=1;align=center;verticalAlign=middle;resizable=0;points=[];autosize=1;" vertex="1" parent="1">
          <mxGeometry x="-1935" y="920" width="300" height="30" as="geometry" />
        </mxCell>
        <mxCell id="HMHt1iqy-GJmb4szX5pf-10" value="&lt;font style=&quot;font-size: 72px&quot;&gt;&lt;b&gt;...&lt;/b&gt;&lt;/font&gt;" style="text;html=1;align=center;verticalAlign=middle;resizable=0;points=[];autosize=1;" vertex="1" parent="1">
          <mxGeometry x="-1672" y="790" width="80" height="40" as="geometry" />
        </mxCell>
      </root>
    </mxGraphModel>
  </diagram>
</mxfile>
